<svg width="640" height="370" viewBox="0 0 640 370" fill="none" xmlns="http://www.w3.org/2000/svg">
<g id="czechia" clip-path="url(#clip0_75_608)">
<path id="Outline" d="M135.175 67.7513L127.899 60.9698L109.443 80.779L96.3114 79.8867L83.8892 93.6282L48.5747 93.9851L26.9245 126.108L7.93628 105.05L15.0347 135.031L47.5099 166.44L31.8934 190.711L68.9826 251.209L77.8556 247.819L128.964 307.781L139.079 306.532L188.946 362.034L212.37 367.387L226.745 355.609L246.62 364.175L258.687 335.978L273.239 338.477L280.515 299.751L294.002 310.458L304.827 304.926L346.175 324.378L356.113 320.274L376.698 337.584L410.061 341.332L416.095 331.517L459.927 341.867L462.057 355.431L486.724 318.668L519.909 326.341L551.674 308.138L556.82 294.397L569.42 293.683L581.133 254.422L596.394 247.997L610.591 221.406L640.937 217.302L634.725 194.994L620.351 189.105L616.092 168.403L586.634 161.443L563.919 140.385L545.286 155.197L517.424 128.428L534.461 119.505L527.894 104.336L503.05 116.293L452.119 88.8097L466.848 118.613L435.26 140.563L389.653 95.0559L411.126 68.4652L393.557 56.8652L371.73 68.4652L352.564 44.9083L311.393 43.3022L301.1 12.9638L274.659 10.1084L274.126 30.453L243.426 33.3083L238.989 11.893L213.08 2.61304L218.759 25.6345L171.555 49.5483L140.144 52.939L135.175 67.7513Z" stroke="black" stroke-opacity="0.8" stroke-width="5.22512" stroke-linejoin="round"/>
<circle id="Brno-Point" cx="427.967" cy="273.863" r="5.93066" fill="#2563EB"/>
<circle id="Praha-Point" cx="220.899" cy="144.465" r="5.93066" fill="black" fill-opacity="0.8"/>
<path id="Brno" d="M396.53 260.916L394.436 260.932C392.967 260.953 391.894 260.984 391.217 261.026C390.613 261.078 390.181 261.104 389.92 261.104C389.285 261.104 388.78 260.942 388.405 260.619C388.04 260.296 387.858 259.911 387.858 259.463C387.858 259.171 387.926 258.942 388.061 258.776C388.196 258.609 388.525 258.349 389.045 257.994C389.347 257.786 389.556 257.463 389.67 257.026C389.785 256.578 389.91 255.625 390.045 254.166C390.243 251.895 390.342 249.099 390.342 245.776C390.342 244.557 390.259 243.75 390.092 243.354C389.936 242.948 389.561 242.614 388.967 242.354C388.28 242.062 387.936 241.635 387.936 241.073C387.936 240.614 388.139 240.239 388.545 239.948C388.962 239.656 389.493 239.51 390.139 239.51C390.493 239.51 390.946 239.526 391.499 239.557C392.415 239.599 393.405 239.619 394.467 239.619C395.249 239.619 396.785 239.588 399.077 239.526C399.795 239.505 400.446 239.494 401.03 239.494C402.415 239.494 403.53 239.609 404.374 239.838C405.228 240.057 405.967 240.432 406.592 240.963C407.613 241.828 408.124 242.984 408.124 244.432C408.124 245.151 407.972 245.854 407.67 246.541C407.368 247.218 406.962 247.76 406.452 248.166C406.087 248.458 405.905 248.724 405.905 248.963C405.905 249.224 406.124 249.442 406.561 249.619C407.415 249.963 408.191 250.541 408.889 251.354C409.608 252.198 409.967 253.255 409.967 254.526C409.967 256.026 409.42 257.395 408.327 258.635C406.879 260.27 404.738 261.088 401.905 261.088C401.519 261.088 400.571 261.062 399.061 261.01C397.686 260.958 396.842 260.927 396.53 260.916ZM397.608 243.963V247.182C397.608 247.692 397.67 248.052 397.795 248.26C397.931 248.468 398.16 248.573 398.483 248.573C399.254 248.573 399.821 248.338 400.186 247.869C400.551 247.39 400.733 246.645 400.733 245.635C400.733 244.656 400.545 243.901 400.17 243.369C399.795 242.828 399.264 242.557 398.577 242.557C398.212 242.557 397.957 242.661 397.811 242.869C397.676 243.067 397.608 243.432 397.608 243.963ZM397.608 252.963V254.448C397.608 255.812 397.707 256.718 397.905 257.166C398.103 257.614 398.504 257.838 399.108 257.838C400.691 257.838 401.483 256.911 401.483 255.057C401.483 252.744 400.597 251.588 398.827 251.588C398.368 251.588 398.051 251.687 397.874 251.885C397.696 252.083 397.608 252.442 397.608 252.963ZM418.295 245.463C418.847 245.463 419.181 245.541 419.295 245.698C419.42 245.854 419.53 246.354 419.624 247.198C419.676 247.656 419.837 247.885 420.108 247.885C420.316 247.885 420.514 247.734 420.702 247.432C421.535 246.13 422.624 245.479 423.967 245.479C424.915 245.479 425.691 245.786 426.295 246.401C426.587 246.703 426.827 247.093 427.014 247.573C427.202 248.041 427.295 248.494 427.295 248.932C427.295 249.421 427.181 249.927 426.952 250.448C426.722 250.958 426.426 251.38 426.061 251.713C425.394 252.349 424.577 252.666 423.608 252.666C423.077 252.666 422.629 252.573 422.264 252.385C421.91 252.198 421.441 251.817 420.858 251.244C420.639 251.026 420.436 250.916 420.249 250.916C419.957 250.916 419.764 251.083 419.67 251.416C419.587 251.739 419.545 252.427 419.545 253.479C419.545 255.052 419.603 256.125 419.717 256.698C419.79 257.01 419.889 257.229 420.014 257.354C420.15 257.468 420.431 257.588 420.858 257.713C421.795 257.994 422.264 258.484 422.264 259.182C422.264 259.609 422.113 259.984 421.811 260.307C421.509 260.619 421.108 260.828 420.608 260.932C419.608 261.14 418.139 261.244 416.202 261.244C414.358 261.244 412.957 261.083 411.999 260.76C411.144 260.468 410.717 259.963 410.717 259.244C410.717 258.703 411.03 258.218 411.655 257.791C411.957 257.593 412.165 257.416 412.28 257.26C412.394 257.093 412.472 256.869 412.514 256.588C412.681 255.64 412.764 253.885 412.764 251.323C412.764 250.854 412.712 250.52 412.608 250.323C412.504 250.114 412.295 249.948 411.983 249.823C411.243 249.531 410.874 249.109 410.874 248.557C410.874 248.057 411.129 247.63 411.639 247.276C412.15 246.911 413.004 246.552 414.202 246.198C415.806 245.718 417.17 245.474 418.295 245.463ZM447.295 251.135L447.514 256.635C447.535 257.052 447.597 257.359 447.702 257.557C447.816 257.755 448.139 258.135 448.67 258.698C448.827 258.864 448.905 259.099 448.905 259.401C448.905 260.088 448.493 260.567 447.67 260.838C446.847 261.109 445.379 261.244 443.264 261.244C441.827 261.244 440.811 261.119 440.217 260.869C439.603 260.609 439.295 260.187 439.295 259.604C439.295 259.395 439.327 259.244 439.389 259.151C439.452 259.046 439.66 258.802 440.014 258.416C440.431 257.979 440.639 256.52 440.639 254.041C440.639 252.604 440.472 251.541 440.139 250.854C439.868 250.302 439.368 250.026 438.639 250.026C437.941 250.026 437.462 250.25 437.202 250.698C436.941 251.145 436.811 251.958 436.811 253.135V256.229C436.811 256.843 436.847 257.265 436.92 257.494C437.004 257.724 437.264 258.166 437.702 258.823C437.816 259.01 437.874 259.224 437.874 259.463C437.874 260.078 437.446 260.531 436.592 260.823C435.738 261.114 434.405 261.26 432.592 261.26C429.696 261.26 428.249 260.661 428.249 259.463C428.249 259.213 428.29 259.026 428.374 258.901C428.467 258.765 428.681 258.578 429.014 258.338C429.285 258.14 429.457 257.916 429.53 257.666C429.603 257.406 429.67 256.776 429.733 255.776C429.806 254.588 429.842 253.343 429.842 252.041C429.842 251.323 429.785 250.854 429.67 250.635C429.566 250.406 429.254 250.13 428.733 249.807C428.285 249.526 428.061 249.182 428.061 248.776C428.061 248.359 428.243 248.02 428.608 247.76C428.972 247.489 429.722 247.151 430.858 246.744C431.858 246.39 432.821 246.093 433.749 245.854C434.676 245.604 435.311 245.479 435.655 245.479C435.967 245.479 436.228 245.593 436.436 245.823C436.655 246.052 436.764 246.323 436.764 246.635C436.764 246.666 436.759 246.796 436.749 247.026C436.738 247.109 436.733 247.182 436.733 247.244C436.733 247.744 436.941 247.994 437.358 247.994C437.608 247.994 437.874 247.796 438.155 247.401C439.051 246.109 440.353 245.463 442.061 245.463C443.374 245.463 444.499 245.807 445.436 246.494C446.092 246.984 446.551 247.562 446.811 248.229C447.071 248.885 447.233 249.854 447.295 251.135ZM459.483 245.354C461.389 245.354 463.061 245.849 464.499 246.838C465.53 247.546 466.358 248.468 466.983 249.604C467.629 250.791 467.952 252.031 467.952 253.323C467.952 255.583 466.915 257.505 464.842 259.088C462.863 260.599 460.597 261.354 458.045 261.354C455.556 261.354 453.54 260.645 451.999 259.229C450.499 257.854 449.749 256.062 449.749 253.854C449.749 251.395 450.665 249.385 452.499 247.823C454.415 246.177 456.743 245.354 459.483 245.354ZM458.233 248.963C457.775 248.963 457.405 249.135 457.124 249.479C456.853 249.812 456.717 250.26 456.717 250.823C456.717 251.448 456.832 252.302 457.061 253.385C457.301 254.458 457.582 255.411 457.905 256.244C458.228 257.099 458.754 257.526 459.483 257.526C460.41 257.526 460.874 256.937 460.874 255.76C460.874 254.885 460.754 253.89 460.514 252.776C460.285 251.661 460.004 250.755 459.67 250.057C459.327 249.349 458.847 248.984 458.233 248.963Z" fill="#2563EB"/>
<path id="Praha" d="M175.759 124.175V115.956C175.759 114.894 175.686 114.222 175.54 113.94C175.394 113.649 174.998 113.414 174.353 113.237C173.415 112.966 172.946 112.498 172.946 111.831C172.946 111.362 173.144 111.003 173.54 110.753C173.936 110.503 174.509 110.378 175.259 110.378C175.509 110.378 176.129 110.394 177.118 110.425H178.056C179.785 110.414 180.795 110.404 181.087 110.394C181.389 110.373 182.451 110.279 184.274 110.112C184.879 110.05 185.431 110.019 185.931 110.019C187.639 110.019 189.16 110.368 190.493 111.065C192.816 112.274 193.978 114.19 193.978 116.815C193.978 118.94 193.165 120.644 191.54 121.925C190.009 123.123 188.155 123.722 185.978 123.722C185.425 123.722 184.748 123.685 183.946 123.612C183.519 123.581 183.254 123.565 183.149 123.565C182.847 123.565 182.696 123.737 182.696 124.081V124.175L182.806 126.737C182.826 127.237 182.915 127.612 183.071 127.862C183.238 128.102 183.571 128.352 184.071 128.612C184.748 128.977 185.087 129.373 185.087 129.8C185.087 130.456 184.587 130.961 183.587 131.315C182.587 131.67 181.17 131.847 179.337 131.847C175.483 131.847 173.556 131.185 173.556 129.862C173.556 129.55 173.639 129.31 173.806 129.144C173.972 128.977 174.363 128.737 174.978 128.425C175.353 128.227 175.571 127.951 175.634 127.597C175.696 127.243 175.738 126.102 175.759 124.175ZM182.806 113.972V119.284C182.806 119.69 182.894 119.935 183.071 120.019C183.373 120.164 183.754 120.237 184.212 120.237C184.899 120.237 185.478 120.045 185.946 119.659C186.623 119.107 186.962 118.18 186.962 116.878C186.962 115.524 186.566 114.545 185.774 113.94C185.274 113.555 184.67 113.362 183.962 113.362C183.191 113.362 182.806 113.565 182.806 113.972ZM202.321 116.065C202.873 116.065 203.207 116.144 203.321 116.3C203.446 116.456 203.556 116.956 203.649 117.8C203.701 118.258 203.863 118.487 204.134 118.487C204.342 118.487 204.54 118.336 204.728 118.034C205.561 116.732 206.649 116.081 207.993 116.081C208.941 116.081 209.717 116.388 210.321 117.003C210.613 117.305 210.853 117.696 211.04 118.175C211.228 118.644 211.321 119.097 211.321 119.534C211.321 120.024 211.207 120.529 210.978 121.05C210.748 121.56 210.451 121.982 210.087 122.315C209.42 122.951 208.603 123.269 207.634 123.269C207.103 123.269 206.655 123.175 206.29 122.987C205.936 122.8 205.467 122.42 204.884 121.847C204.665 121.628 204.462 121.519 204.274 121.519C203.983 121.519 203.79 121.685 203.696 122.019C203.613 122.341 203.571 123.029 203.571 124.081C203.571 125.654 203.629 126.727 203.743 127.3C203.816 127.612 203.915 127.831 204.04 127.956C204.175 128.071 204.457 128.19 204.884 128.315C205.821 128.597 206.29 129.086 206.29 129.784C206.29 130.211 206.139 130.586 205.837 130.909C205.535 131.222 205.134 131.43 204.634 131.534C203.634 131.743 202.165 131.847 200.228 131.847C198.384 131.847 196.983 131.685 196.024 131.362C195.17 131.071 194.743 130.565 194.743 129.847C194.743 129.305 195.056 128.821 195.681 128.394C195.983 128.196 196.191 128.019 196.306 127.862C196.42 127.696 196.498 127.472 196.54 127.19C196.707 126.243 196.79 124.487 196.79 121.925C196.79 121.456 196.738 121.123 196.634 120.925C196.53 120.716 196.321 120.55 196.009 120.425C195.269 120.133 194.899 119.711 194.899 119.159C194.899 118.659 195.155 118.232 195.665 117.878C196.175 117.513 197.03 117.154 198.228 116.8C199.832 116.321 201.196 116.076 202.321 116.065ZM220.759 115.956C222.571 115.956 224.108 116.414 225.368 117.331C226.035 117.821 226.498 118.383 226.759 119.019C227.03 119.644 227.165 120.508 227.165 121.612L227.134 123.94C227.134 125.555 227.248 126.602 227.478 127.081C227.592 127.31 227.701 127.456 227.806 127.519C227.91 127.581 228.129 127.638 228.462 127.69C228.795 127.743 228.962 127.961 228.962 128.347C228.962 128.847 228.759 129.368 228.353 129.909C227.957 130.451 227.441 130.904 226.806 131.269C226.024 131.727 225.207 131.956 224.353 131.956C223.259 131.956 222.394 131.581 221.759 130.831C221.54 130.56 221.337 130.425 221.149 130.425C220.941 130.425 220.665 130.555 220.321 130.815C219.28 131.576 218.097 131.956 216.774 131.956C215.41 131.956 214.306 131.664 213.462 131.081C212.91 130.696 212.472 130.196 212.149 129.581C211.826 128.956 211.665 128.305 211.665 127.628C211.665 126.545 212.103 125.586 212.978 124.753C214.342 123.44 216.384 122.779 219.103 122.769C219.707 122.769 220.087 122.711 220.243 122.597C220.399 122.472 220.478 122.19 220.478 121.753C220.478 120.649 220.363 119.852 220.134 119.362C219.905 118.862 219.53 118.612 219.009 118.612C218.696 118.612 218.415 118.706 218.165 118.894C217.925 119.081 217.623 119.425 217.259 119.925C216.332 121.248 215.363 121.909 214.353 121.909C213.842 121.909 213.425 121.758 213.103 121.456C212.78 121.154 212.618 120.758 212.618 120.269C212.618 119.769 212.816 119.269 213.212 118.769C213.618 118.269 214.165 117.831 214.853 117.456C216.738 116.456 218.707 115.956 220.759 115.956ZM219.712 125.003C219.254 125.003 218.853 125.19 218.509 125.565C218.175 125.94 218.009 126.388 218.009 126.909C218.009 127.409 218.129 127.815 218.368 128.128C218.608 128.43 218.925 128.581 219.321 128.581C220.155 128.581 220.571 127.878 220.571 126.472C220.571 125.899 220.509 125.513 220.384 125.315C220.269 125.118 220.045 125.013 219.712 125.003ZM238.681 110.972L238.478 117.519C238.457 118.3 238.696 118.69 239.196 118.69C239.446 118.69 239.691 118.519 239.931 118.175C240.941 116.706 242.29 115.972 243.978 115.972C245.634 115.972 246.951 116.477 247.931 117.487C248.368 117.935 248.675 118.466 248.853 119.081C249.04 119.696 249.144 120.576 249.165 121.722L249.306 127.362C249.316 127.852 249.379 128.211 249.493 128.44C249.618 128.67 249.899 128.956 250.337 129.3C250.639 129.539 250.79 129.826 250.79 130.159C250.79 131.284 249.092 131.847 245.696 131.847C242.675 131.847 241.165 131.321 241.165 130.269C241.165 130.091 241.191 129.956 241.243 129.862C241.295 129.769 241.478 129.519 241.79 129.112C242.228 128.539 242.446 127.107 242.446 124.815C242.446 123.43 242.316 122.42 242.056 121.784C241.712 120.92 241.097 120.487 240.212 120.487C239.576 120.487 239.108 120.716 238.806 121.175C238.587 121.508 238.478 122.133 238.478 123.05V126.065C238.55 127.399 238.613 128.154 238.665 128.331C238.717 128.508 238.957 128.836 239.384 129.315C239.582 129.534 239.681 129.789 239.681 130.081C239.681 131.258 238.149 131.847 235.087 131.847C231.504 131.847 229.712 131.237 229.712 130.019C229.712 129.737 229.769 129.524 229.884 129.378C229.998 129.222 230.28 128.987 230.728 128.675C231.123 128.394 231.394 127.638 231.54 126.409C231.696 125.17 231.774 123.123 231.774 120.269C231.774 118.029 231.712 116.477 231.587 115.612C231.545 115.289 231.467 115.055 231.353 114.909C231.248 114.753 231.045 114.597 230.743 114.44C230.097 114.107 229.774 113.722 229.774 113.284C229.774 112.763 230.019 112.341 230.509 112.019C230.998 111.696 231.936 111.347 233.321 110.972C235.196 110.451 236.691 110.19 237.806 110.19C238.41 110.19 238.701 110.451 238.681 110.972ZM260.634 115.956C262.446 115.956 263.983 116.414 265.243 117.331C265.91 117.821 266.373 118.383 266.634 119.019C266.905 119.644 267.04 120.508 267.04 121.612L267.009 123.94C267.009 125.555 267.123 126.602 267.353 127.081C267.467 127.31 267.576 127.456 267.681 127.519C267.785 127.581 268.004 127.638 268.337 127.69C268.67 127.743 268.837 127.961 268.837 128.347C268.837 128.847 268.634 129.368 268.228 129.909C267.832 130.451 267.316 130.904 266.681 131.269C265.899 131.727 265.082 131.956 264.228 131.956C263.134 131.956 262.269 131.581 261.634 130.831C261.415 130.56 261.212 130.425 261.024 130.425C260.816 130.425 260.54 130.555 260.196 130.815C259.155 131.576 257.972 131.956 256.649 131.956C255.285 131.956 254.181 131.664 253.337 131.081C252.785 130.696 252.347 130.196 252.024 129.581C251.701 128.956 251.54 128.305 251.54 127.628C251.54 126.545 251.978 125.586 252.853 124.753C254.217 123.44 256.259 122.779 258.978 122.769C259.582 122.769 259.962 122.711 260.118 122.597C260.274 122.472 260.353 122.19 260.353 121.753C260.353 120.649 260.238 119.852 260.009 119.362C259.78 118.862 259.405 118.612 258.884 118.612C258.571 118.612 258.29 118.706 258.04 118.894C257.8 119.081 257.498 119.425 257.134 119.925C256.207 121.248 255.238 121.909 254.228 121.909C253.717 121.909 253.3 121.758 252.978 121.456C252.655 121.154 252.493 120.758 252.493 120.269C252.493 119.769 252.691 119.269 253.087 118.769C253.493 118.269 254.04 117.831 254.728 117.456C256.613 116.456 258.582 115.956 260.634 115.956ZM259.587 125.003C259.129 125.003 258.728 125.19 258.384 125.565C258.05 125.94 257.884 126.388 257.884 126.909C257.884 127.409 258.004 127.815 258.243 128.128C258.483 128.43 258.8 128.581 259.196 128.581C260.03 128.581 260.446 127.878 260.446 126.472C260.446 125.899 260.384 125.513 260.259 125.315C260.144 125.118 259.92 125.013 259.587 125.003Z" fill="black" fill-opacity="0.8"/>
</g>
<defs>
<clipPath id="clip0_75_608">
<rect width="640" height="370" fill="white"/>
</clipPath>
</defs>
</svg>
