<?xml version="1.0" ?>
<!-- Uploaded to: SVG Repo, www.svgrepo.com, Generator: SVG Repo Mixer Tools -->
<svg width="800px" height="800px" viewBox="0 0 64 64" id="SVGRoot" version="1.1" xmlns="http://www.w3.org/2000/svg" xmlns:cc="http://creativecommons.org/ns#" xmlns:dc="http://purl.org/dc/elements/1.1/" xmlns:inkscape="http://www.inkscape.org/namespaces/inkscape" xmlns:rdf="http://www.w3.org/1999/02/22-rdf-syntax-ns#" xmlns:sodipodi="http://sodipodi.sourceforge.net/DTD/sodipodi-0.dtd" xmlns:svg="http://www.w3.org/2000/svg">
<title id="title7560"/>
<defs id="defs7542"/>
<g id="layer1">
<path d="m 20.527344,10.322266 c -0.382169,-0.009 -0.745225,0.07095 -1.072266,0.259765 -0.503525,0.290712 -0.830589,0.800557 -1.003906,1.404297 -0.173317,0.60374 -0.21206,1.318464 -0.144531,2.13086 0.135057,1.62479 0.701319,3.652042 1.669921,5.904296 l 0.919922,-0.394531 c -0.937855,-2.180758 -1.470432,-4.133697 -1.591796,-5.59375 -0.06068,-0.730027 -0.01547,-1.334652 0.109374,-1.769531 0.124843,-0.43488 0.310771,-0.681521 0.541016,-0.814453 0.302503,-0.174651 0.749085,-0.185364 1.384766,0.06836 0.635681,0.253724 1.412489,0.767949 2.240234,1.501953 1.65549,1.468008 3.519996,3.80798 5.154297,6.638672 1.634301,2.830692 2.728288,5.615503 3.171875,7.783203 0.221794,1.08385 0.277797,2.014029 0.179688,2.691406 -0.09811,0.677378 -0.328357,1.057772 -0.63086,1.232422 -0.230248,0.132934 -0.539471,0.171828 -0.978516,0.0625 -0.439044,-0.109327 -0.984047,-0.373439 -1.585937,-0.791015 -1.203779,-0.835153 -2.62915,-2.273158 -4.048828,-4.175781 l -0.802735,0.599609 c 1.466222,1.964999 2.939699,3.469056 4.279297,4.398437 0.669799,0.464691 1.308449,0.787675 1.917969,0.939454 0.60952,0.151778 1.215218,0.124698 1.71875,-0.166016 0.654082,-0.377634 0.997557,-1.104097 1.121094,-1.957031 0.123536,-0.852934 0.04766,-1.87644 -0.189453,-3.035157 -0.474228,-2.317432 -1.605748,-5.175164 -3.285157,-8.083984 -1.679408,-2.90882 -3.58758,-5.31731 -5.357421,-6.886719 -0.884921,-0.784704 -1.732773,-1.362159 -2.533203,-1.68164 -0.400216,-0.159741 -0.801426,-0.256663 -1.183594,-0.265625 z" id="path4797" style="color:#000000;font-style:normal;font-variant:normal;font-weight:normal;font-stretch:normal;font-size:medium;line-height:normal;font-family:sans-serif;font-variant-ligatures:normal;font-variant-position:normal;font-variant-caps:normal;font-variant-numeric:normal;font-variant-alternates:normal;font-feature-settings:normal;text-indent:0;text-align:start;text-decoration:none;text-decoration-line:none;text-decoration-style:solid;text-decoration-color:#000000;letter-spacing:normal;word-spacing:normal;text-transform:none;writing-mode:lr-tb;direction:ltr;text-orientation:mixed;dominant-baseline:auto;baseline-shift:baseline;text-anchor:start;white-space:normal;shape-padding:0;clip-rule:nonzero;display:inline;overflow:visible;visibility:visible;opacity:1;isolation:auto;mix-blend-mode:normal;color-interpolation:sRGB;color-interpolation-filters:linearRGB;solid-color:#000000;solid-opacity:1;vector-effect:none;fill:#E56B0C;fill-opacity:1;fill-rule:nonzero;stroke:none;stroke-width:1.00157475;stroke-linecap:butt;stroke-linejoin:miter;stroke-miterlimit:4;stroke-dasharray:none;stroke-dashoffset:0;stroke-opacity:1;color-rendering:auto;image-rendering:auto;shape-rendering:auto;text-rendering:auto;enable-background:accumulate"/>
<path d="m 25.619141,16.259766 -7.361329,4.25 c -2.147556,1.239892 -2.886377,4.000881 -1.646484,6.148437 1.239892,2.147556 4.000881,2.886376 6.148438,1.646485 l 7.361328,-4.25 z m -0.365235,1.367187 3.498047,6.060547 -6.494141,3.75 c -1.678784,0.969246 -3.81005,0.397534 -4.779296,-1.28125 -0.969247,-1.678784 -0.397535,-3.81005 1.28125,-4.779297 z" id="path4779" style="color:#000000;font-style:normal;font-variant:normal;font-weight:normal;font-stretch:normal;font-size:medium;line-height:normal;font-family:sans-serif;font-variant-ligatures:normal;font-variant-position:normal;font-variant-caps:normal;font-variant-numeric:normal;font-variant-alternates:normal;font-feature-settings:normal;text-indent:0;text-align:start;text-decoration:none;text-decoration-line:none;text-decoration-style:solid;text-decoration-color:#000000;letter-spacing:normal;word-spacing:normal;text-transform:none;writing-mode:lr-tb;direction:ltr;text-orientation:mixed;dominant-baseline:auto;baseline-shift:baseline;text-anchor:start;white-space:normal;shape-padding:0;clip-rule:nonzero;display:inline;overflow:visible;visibility:visible;opacity:1;isolation:auto;mix-blend-mode:normal;color-interpolation:sRGB;color-interpolation-filters:linearRGB;solid-color:#000000;solid-opacity:1;vector-effect:none;fill:#E56B0C;fill-opacity:1;fill-rule:nonzero;stroke:none;stroke-width:1.00157475;stroke-linecap:butt;stroke-linejoin:miter;stroke-miterlimit:4;stroke-dasharray:none;stroke-dashoffset:0;stroke-opacity:1;color-rendering:auto;image-rendering:auto;shape-rendering:auto;text-rendering:auto;enable-background:accumulate"/>
<path d="m 31.273458,31.540865 0.860627,0.517991 9.30997,-15.722313 c 0.182173,-0.157316 0.293669,-0.373554 0.343823,-0.584161 0.06146,-0.257972 0.05291,-0.52289 0.0121,-0.807498 -0.08202,-0.569218 -0.314835,-1.209346 -0.687062,-1.854089 -0.372245,-0.644743 -0.813139,-1.171495 -1.265087,-1.527132 -0.225978,-0.177808 -0.452088,-0.319374 -0.706246,-0.395127 -0.208592,-0.06218 -0.453052,-0.07338 -0.681192,0.0076 l -18.737645,-0.661266 -0.03527,1.001408 c 6.294607,0.21696 13.024811,0.362834 19.165076,0.61285 0.0796,0.0237 0.217587,0.09552 0.374551,0.219032 0.31389,0.246999 0.698128,0.693566 1.01624,1.244555 0.318122,0.550989 0.509809,1.101949 0.566766,1.497294 0.02835,0.197662 0.02154,0.353087 0.0024,0.433873" id="path4799" style="color:#000000;font-style:normal;font-variant:normal;font-weight:normal;font-stretch:normal;font-size:medium;line-height:normal;font-family:sans-serif;font-variant-ligatures:normal;font-variant-position:normal;font-variant-caps:normal;font-variant-numeric:normal;font-variant-alternates:normal;font-feature-settings:normal;text-indent:0;text-align:start;text-decoration:none;text-decoration-line:none;text-decoration-style:solid;text-decoration-color:#000000;letter-spacing:normal;word-spacing:normal;text-transform:none;writing-mode:lr-tb;direction:ltr;text-orientation:mixed;dominant-baseline:auto;baseline-shift:baseline;text-anchor:start;white-space:normal;shape-padding:0;clip-rule:nonzero;display:inline;overflow:visible;visibility:visible;opacity:1;isolation:auto;mix-blend-mode:normal;color-interpolation:sRGB;color-interpolation-filters:linearRGB;solid-color:#000000;solid-opacity:1;vector-effect:none;fill:#E56B0C;fill-opacity:1;fill-rule:nonzero;stroke:none;stroke-width:1.00157475;stroke-linecap:butt;stroke-linejoin:miter;stroke-miterlimit:4;stroke-dasharray:none;stroke-dashoffset:0;stroke-opacity:1;color-rendering:auto;image-rendering:auto;shape-rendering:auto;text-rendering:auto;enable-background:accumulate"/>
<path d="m 30.962663,43.675679 c -3.48967,0 -6.650635,2.38964 -8.976378,3.040849 -1.162872,0.325606 -2.117326,0.716012 -2.819882,1.181102 -0.702557,0.465086 -1.21063,1.054137 -1.21063,1.779035 0,0.724898 0.508073,1.313945 1.21063,1.779035 0.702556,0.46509 1.65701,0.8555 2.819882,1.181102 2.325743,0.651209 5.486708,1.040848 8.976378,1.040848 3.48967,0 6.643251,-0.389639 8.968995,-1.040848 1.162874,-0.325606 2.117325,-0.716012 2.819883,-1.181102 0.702557,-0.46509 1.210631,-1.054137 1.210628,-1.779035 3e-6,-0.724898 -0.508071,-1.313949 -1.210628,-1.779035 -0.702558,-0.46509 -1.657009,-0.8555 -2.819883,-1.181102 -2.325744,-0.651209 -5.479325,-3.040849 -8.968995,-3.040849 z m 0,1.003937 c 3.413889,0 6.504883,2.388396 8.703249,3.003938 1.099181,0.307767 1.969474,0.675847 2.531988,1.048229 0.562511,0.372397 0.760335,0.70328 0.760335,0.944882 0,0.241587 -0.19782,0.5725 -0.760335,0.944882 -0.562514,0.372397 -1.432807,0.740455 -2.531988,1.048229 -2.198366,0.615542 -5.28936,1.003937 -8.703249,1.003937 -3.41389,0 -6.504882,-0.388395 -8.703249,-1.003937 -1.099183,-0.307774 -1.976857,-0.675851 -2.53937,-1.048229 -0.562512,-0.372397 -0.760334,-0.703279 -0.760334,-0.944882 0,-0.241587 0.197824,-0.572504 0.760334,-0.944882 0.562513,-0.372397 1.440187,-0.740458 2.53937,-1.048229 2.198367,-0.615542 5.289359,-3.003938 8.703249,-3.003938 z" id="path4833" style="color:#000000;font-style:normal;font-variant:normal;font-weight:normal;font-stretch:normal;font-size:medium;line-height:normal;font-family:sans-serif;font-variant-ligatures:normal;font-variant-position:normal;font-variant-caps:normal;font-variant-numeric:normal;font-variant-alternates:normal;font-feature-settings:normal;text-indent:0;text-align:start;text-decoration:none;text-decoration-line:none;text-decoration-style:solid;text-decoration-color:#000000;letter-spacing:normal;word-spacing:normal;text-transform:none;writing-mode:lr-tb;direction:ltr;text-orientation:mixed;dominant-baseline:auto;baseline-shift:baseline;text-anchor:start;white-space:normal;shape-padding:0;clip-rule:nonzero;display:inline;overflow:visible;visibility:visible;opacity:1;isolation:auto;mix-blend-mode:normal;color-interpolation:sRGB;color-interpolation-filters:linearRGB;solid-color:#000000;solid-opacity:1;vector-effect:none;fill:#E56B0C;fill-opacity:1;fill-rule:nonzero;stroke:none;stroke-width:1.00157475;stroke-linecap:butt;stroke-linejoin:miter;stroke-miterlimit:4;stroke-dasharray:none;stroke-dashoffset:0;stroke-opacity:1;color-rendering:auto;image-rendering:auto;shape-rendering:auto;text-rendering:auto;enable-background:accumulate"/>
<path d="m 40.814453,12.822266 -0.707031,0.707031 c 6.395746,6.395747 8.061708,13.689876 6.128906,19.488281 -1.932801,5.798405 -7.467051,10.169708 -15.804687,10.660156 l 0.05859,0.998047 c 8.662363,-0.50955 14.626161,-5.140202 16.69336,-11.341797 2.067198,-6.201595 0.235112,-13.907465 -6.369141,-20.511718 z" id="path4835" style="color:#000000;font-style:normal;font-variant:normal;font-weight:normal;font-stretch:normal;font-size:medium;line-height:normal;font-family:sans-serif;font-variant-ligatures:normal;font-variant-position:normal;font-variant-caps:normal;font-variant-numeric:normal;font-variant-alternates:normal;font-feature-settings:normal;text-indent:0;text-align:start;text-decoration:none;text-decoration-line:none;text-decoration-style:solid;text-decoration-color:#000000;letter-spacing:normal;word-spacing:normal;text-transform:none;writing-mode:lr-tb;direction:ltr;text-orientation:mixed;dominant-baseline:auto;baseline-shift:baseline;text-anchor:start;white-space:normal;shape-padding:0;clip-rule:nonzero;display:inline;overflow:visible;visibility:visible;opacity:1;isolation:auto;mix-blend-mode:normal;color-interpolation:sRGB;color-interpolation-filters:linearRGB;solid-color:#000000;solid-opacity:1;vector-effect:none;fill:#E56B0C;fill-opacity:1;fill-rule:nonzero;stroke:none;stroke-width:0.99999994px;stroke-linecap:butt;stroke-linejoin:miter;stroke-miterlimit:4;stroke-dasharray:none;stroke-dashoffset:0;stroke-opacity:1;color-rendering:auto;image-rendering:auto;shape-rendering:auto;text-rendering:auto;enable-background:accumulate"/>
<path d="m 38.052734,15.884766 -5,7 0.814454,0.582031 5,-7 z" id="path4853" style="color:#000000;font-style:normal;font-variant:normal;font-weight:normal;font-stretch:normal;font-size:medium;line-height:normal;font-family:sans-serif;font-variant-ligatures:normal;font-variant-position:normal;font-variant-caps:normal;font-variant-numeric:normal;font-variant-alternates:normal;font-feature-settings:normal;text-indent:0;text-align:start;text-decoration:none;text-decoration-line:none;text-decoration-style:solid;text-decoration-color:#000000;letter-spacing:normal;word-spacing:normal;text-transform:none;writing-mode:lr-tb;direction:ltr;text-orientation:mixed;dominant-baseline:auto;baseline-shift:baseline;text-anchor:start;white-space:normal;shape-padding:0;clip-rule:nonzero;display:inline;overflow:visible;visibility:visible;opacity:1;isolation:auto;mix-blend-mode:normal;color-interpolation:sRGB;color-interpolation-filters:linearRGB;solid-color:#000000;solid-opacity:1;vector-effect:none;fill:#E56B0C;fill-opacity:1;fill-rule:nonzero;stroke:none;stroke-width:0.99999994px;stroke-linecap:butt;stroke-linejoin:miter;stroke-miterlimit:4;stroke-dasharray:none;stroke-dashoffset:0;stroke-opacity:1;color-rendering:auto;image-rendering:auto;shape-rendering:auto;text-rendering:auto;enable-background:accumulate"/>
<path d="m 18.489499,24.613672 -0.861328,0.498047 c 0.68539,1.224624 1.980166,2.064453 3.478516,2.064453 0.882119,0 1.691024,-0.29856 2.353515,-0.785156 l -0.501953,-0.871094 c -0.510025,0.402802 -1.146853,0.652344 -1.851562,0.652344 -1.137371,0 -2.109124,-0.631534 -2.617188,-1.558594 z" id="path4857" style="color:#000000;font-style:normal;font-variant:normal;font-weight:normal;font-stretch:normal;font-size:medium;line-height:normal;font-family:sans-serif;font-variant-ligatures:normal;font-variant-position:normal;font-variant-caps:normal;font-variant-numeric:normal;font-variant-alternates:normal;font-feature-settings:normal;text-indent:0;text-align:start;text-decoration:none;text-decoration-line:none;text-decoration-style:solid;text-decoration-color:#000000;letter-spacing:normal;word-spacing:normal;text-transform:none;writing-mode:lr-tb;direction:ltr;text-orientation:mixed;dominant-baseline:auto;baseline-shift:baseline;text-anchor:start;white-space:normal;shape-padding:0;clip-rule:nonzero;display:inline;overflow:visible;visibility:visible;opacity:1;isolation:auto;mix-blend-mode:normal;color-interpolation:sRGB;color-interpolation-filters:linearRGB;solid-color:#000000;solid-opacity:1;vector-effect:none;fill:#E56B0C;fill-opacity:1;fill-rule:nonzero;stroke:none;stroke-width:1.00157475;stroke-linecap:butt;stroke-linejoin:miter;stroke-miterlimit:4;stroke-dasharray:none;stroke-dashoffset:0;stroke-opacity:1;color-rendering:auto;image-rendering:auto;shape-rendering:auto;text-rendering:auto;enable-background:accumulate"/>
<path d="m 21.619141,49.701172 -0.316407,0.949219 c 3.094869,1.031626 6.158203,1.02539 9.158204,1.02539 v -1 c -3,0 -5.936666,-0.0062 -8.841797,-0.974609 z" id="path4867" style="color:#000000;font-style:normal;font-variant:normal;font-weight:normal;font-stretch:normal;font-size:medium;line-height:normal;font-family:sans-serif;font-variant-ligatures:normal;font-variant-position:normal;font-variant-caps:normal;font-variant-numeric:normal;font-variant-alternates:normal;font-feature-settings:normal;text-indent:0;text-align:start;text-decoration:none;text-decoration-line:none;text-decoration-style:solid;text-decoration-color:#000000;letter-spacing:normal;word-spacing:normal;text-transform:none;writing-mode:lr-tb;direction:ltr;text-orientation:mixed;dominant-baseline:auto;baseline-shift:baseline;text-anchor:start;white-space:normal;shape-padding:0;clip-rule:nonzero;display:inline;overflow:visible;visibility:visible;opacity:1;isolation:auto;mix-blend-mode:normal;color-interpolation:sRGB;color-interpolation-filters:linearRGB;solid-color:#000000;solid-opacity:1;vector-effect:none;fill:#E56B0C;fill-opacity:1;fill-rule:nonzero;stroke:none;stroke-width:0.99999994px;stroke-linecap:butt;stroke-linejoin:miter;stroke-miterlimit:4;stroke-dasharray:none;stroke-dashoffset:0;stroke-opacity:1;color-rendering:auto;image-rendering:auto;shape-rendering:auto;text-rendering:auto;enable-background:accumulate"/>
</g>
</svg>