<svg width="50" height="34" viewBox="0 0 50 34" fill="none" xmlns="http://www.w3.org/2000/svg">
<path d="M3.91827 16.8215C7.01329 15.2782 11.8554 11.9578 13.6458 11.9578" stroke="black" stroke-linecap="round"/>
<path d="M13.8282 11.8969C15.7447 7.66928 14.2369 1.97794 20.4787 1.01765C26.9266 0.0256762 27.2643 10.0561 27.2643 13.8425" stroke="black" stroke-linecap="round"/>
<path d="M27.6292 13.8424C29.4627 13.3064 31.3521 12.748 33.2833 12.748C36.7501 12.748 45.1202 14.9979 43.6202 23.4979" stroke="black" stroke-linecap="round"/>
<path d="M4.83451 16.4567C0.0672052 17.6485 40.6693 34.0044 43.6112 23.3199" stroke="black" stroke-linecap="round"/>
<path d="M15.0583 14.0319C13.2139 14.0319 11.0658 15.5236 12.7609 17.7031C14.9412 20.5063 18.6312 19.9543 18.6312 16.5277C18.6312 14.688 16.1935 14.0248 14.801 14.0248" stroke="black" stroke-linecap="round"/>
<path d="M15.4697 17.0039C14.567 17.0039 15.4089 17.8622 15.4089 17.2775C15.4089 16.7312 14.3271 17.2471 14.801 17.2471" stroke="black" stroke-linecap="round"/>
<path d="M22.5222 5.27009C18.6671 1.82082 14.8551 10.6746 18.7528 12.1402C20.3273 12.6084 22.7493 12.9231 24.1975 11.7382C26.3621 9.96717 23.9955 6.58833 22.5222 5.27009Z" stroke="black" stroke-linecap="round"/>
<path d="M4.2044 15.1816C1.8065 14.5707 0.783463 17.6638 3.5276 18.3991C5.19932 18.847 5.89577 13.9578 3.06024 15.6933C-0.761186 18.0322 7.0339 17.0098 4.20769 16.2525C3.05414 15.9434 2.71885 17.2383 3.93002 17.5628C4.54492 17.7276 5.47188 16.0035 5.15131 15.8759C4.36637 15.5634 2.20601 16.0393 3.10479 17.1843C4.25532 18.6501 6.72127 18.0676 5.80401 15.8935C5.03351 14.0672 1.90325 15.3132 1.50982 16.7814C0.650371 19.989 7.37749 18.6494 5.07994 16.6121" stroke="black" stroke-linecap="round"/>
<path d="M2.72436 18.6308C2.39243 19.388 1.56921 21.1464 1.56921 21.9746" stroke="black" stroke-linecap="round"/>
<path d="M4.99624 18.866C4.95565 19.3077 5.91796 22.4057 5.94549 22.3493" stroke="black" stroke-linecap="round"/>
<path d="M3.82491 18.866C3.59254 20.0374 3.47422 21.3375 3.34125 22.6388" stroke="black" stroke-linecap="round"/>
<path d="M11.5182 21.2816C10.9627 22.7399 9.84807 25.2946 9.7551 26.8749C9.73326 27.2464 11.7703 27.3434 12.089 27.3917C12.732 27.4891 15.921 28.7869 16.1388 28.2969C16.6976 27.0396 17.5371 24.6439 17.5371 23.1663" stroke="black" stroke-linecap="round"/>
<path d="M14.8617 22.2993C13.9205 23.77 13.369 25.5761 12.7946 27.2993" stroke="black" stroke-linecap="round"/>
<path d="M23.7908 25.1877C23.606 25.9053 22.4543 31.5405 21.9061 31.8146" stroke="black" stroke-linecap="round"/>
<path d="M26.7631 26C25.9083 27.5874 25 30.2383 25 32.0797" stroke="black" stroke-linecap="round"/>
<path d="M36.5055 27.0354C37.989 28.6062 37.9646 30.8979 37.9646 32.9327" stroke="black" stroke-linecap="round"/>
<path d="M39.1805 26.7922C39.5882 28.7401 40.5181 30.6884 40.5181 32.7503" stroke="black" stroke-linecap="round"/>
<path d="M44.1051 23.3876C53.0752 23.3876 37.6933 5.60519 49.2729 9.46503" stroke="black" stroke-linecap="round"/>
</svg>
