<svg width="50" height="35" viewBox="0 0 50 35" fill="none" xmlns="http://www.w3.org/2000/svg">
<g id="mouse" clip-path="url(#clip0_76_276)">
<path id="head" d="M3.91827 17.3909C7.01329 15.8476 11.8554 12.5272 13.6458 12.5272" stroke="black" stroke-linecap="round"/>
<path id="back" d="M27.6292 14.4117C29.4627 13.8757 31.3521 13.3173 33.2833 13.3173C36.7501 13.3173 45.1202 15.5672 43.6202 24.0672" stroke="black" stroke-linecap="round"/>
<path id="belly" d="M4.83451 17.0261C0.0672022 18.2179 40.6693 34.5738 43.6112 23.8893" stroke="black" stroke-linecap="round"/>
<path id="outer-eye" d="M15.0583 14.6012C13.2139 14.6012 11.0658 16.0929 12.7609 18.2724C14.9412 21.0756 18.6312 20.5236 18.6312 17.097C18.6312 15.2573 16.1935 14.5941 14.801 14.5941" stroke="black" stroke-linecap="round"/>
<path id="inner-eye" d="M15.4697 17.5732C14.567 17.5732 15.4089 18.4315 15.4089 17.8468C15.4089 17.3005 14.3271 17.8164 14.801 17.8164" stroke="black" stroke-linecap="round"/>
<path id="inner-ear" d="M22.5222 5.83943C18.6671 2.39016 14.8551 11.2439 18.7528 12.7095C20.3273 13.1777 22.7493 13.4924 24.1975 12.3075C26.3621 10.5365 23.9955 7.15767 22.5222 5.83943Z" stroke="black" stroke-linecap="round"/>
<path id="outer-ear" d="M13.8282 12.4662C15.7447 8.23862 14.2369 2.54728 20.4787 1.58699C26.9266 0.595016 27.2643 10.6254 27.2643 14.4118" stroke="black" stroke-linecap="round"/>
<path id="nose" d="M4.20441 15.7509C1.80651 15.14 0.783478 18.2331 3.52761 18.9684C5.19933 19.4163 5.89578 14.5271 3.06025 16.2626C-0.761171 18.6015 7.03391 17.5791 4.2077 16.8218C3.05415 16.5127 2.71886 17.8076 3.93003 18.1321C4.54493 18.2969 5.47189 16.5728 5.15132 16.4452C4.36638 16.1327 2.20602 16.6086 3.1048 17.7536C4.25533 19.2194 6.72128 18.6369 5.80402 16.4628C5.03352 14.6365 1.90326 15.8825 1.50983 17.3507C0.650386 20.5583 7.3775 19.2187 5.07995 17.1814" stroke="black" stroke-linecap="round"/>
<path id="whisker-C" d="M4.99624 19.4354C4.95565 19.8771 5.91796 22.9751 5.94549 22.9187" stroke="black" stroke-linecap="round"/>
<path id="whisker-B" d="M3.82491 19.4354C3.59254 20.6068 3.47422 21.9069 3.34125 23.2082" stroke="black" stroke-linecap="round"/>
<path id="whisker-A" d="M2.72436 19.2001C2.39243 19.9573 1.56921 21.7157 1.56921 22.5439" stroke="black" stroke-linecap="round"/>
<path id="teeth" d="M11.5182 21.851C10.9627 23.3093 9.84809 25.864 9.75512 27.4443C9.73328 27.8158 11.7703 27.9128 12.089 27.9611C12.732 28.0585 15.921 29.3563 16.1388 28.8663C16.6976 27.609 17.5371 25.2133 17.5371 23.7357" stroke="black" stroke-linecap="round"/>
<path id="teeth-line" d="M14.8617 22.8687C13.9205 24.3394 13.369 26.1455 12.7946 27.8687" stroke="black" stroke-linecap="round"/>
<path id="front-leg-B" d="M26.7631 26.5693C25.9083 28.1567 25 30.8076 25 32.649" stroke="black" stroke-linecap="round"/>
<path id="front-leg-A" d="M23.7908 25.757C23.606 26.4746 22.4543 32.1098 21.9061 32.3839" stroke="black" stroke-linecap="round"/>
<path id="rear-leg-B" d="M39.1805 27.3615C39.5882 29.3094 40.5181 31.2577 40.5181 33.3196" stroke="black" stroke-linecap="round"/>
<path id="rear-leg-A" d="M36.5055 27.6047C37.989 29.1755 37.9646 31.4672 37.9646 33.502" stroke="black" stroke-linecap="round"/>
<path id="tail" d="M44.1051 23.9569C53.0752 23.9569 37.6933 6.17453 49.2729 10.0344" stroke="black" stroke-linecap="round"/>
</g>
<defs>
<clipPath id="clip0_76_276">
<rect width="50" height="34" fill="white" transform="translate(0 0.569336)"/>
</clipPath>
</defs>
</svg>
